<?xml version="1.0" encoding="UTF-8"?>
<svg width="269px" height="57px" viewBox="0 0 269 57" version="1.1" xmlns="http://www.w3.org/2000/svg" xmlns:xlink="http://www.w3.org/1999/xlink">
    <!-- Generator: Sketch 48.2 (47327) - http://www.bohemiancoding.com/sketch -->
    <title>happyjuice_logo</title>
    <desc>Created with Sketch.</desc>
    <defs></defs>
    <g id="Artboard" stroke="none" stroke-width="1" fill="none" fill-rule="evenodd" transform="translate(-273.000000, -482.000000)">
        <g id="happyjuice_logo" transform="translate(273.000000, 482.000000)">
            <path d="M28.2933095,54.7829064 L26.6104131,56.0600422 C24.6423791,57.5535665 21.8362317,57.1689004 20.3427074,55.2008664 C20.2554525,55.0858896 20.1738134,54.9667572 20.0980767,54.8438873 L18.9750595,53.0219831 L16.9392972,53.6011847 C14.5630216,54.2772669 12.0885968,52.8989878 11.4125146,50.5227122 C11.3751659,50.39144 11.3438444,50.2585273 11.3186484,50.1243912 L10.9152907,47.9770357 L8.77546089,47.7703452 C6.3163247,47.5328122 4.51535943,45.34673 4.75289236,42.8875938 C4.76489694,42.7633126 4.78209959,42.6395885 4.80445514,42.5167464 L5.20251971,40.3294122 L3.24478025,39.3368473 C1.04122532,38.2196552 0.160554277,35.5276578 1.27774643,33.3241028 C1.32999102,33.2210554 1.38620813,33.1200706 1.4462713,33.0213756 L2.60828782,31.1119665 L1.12050524,29.4526043 C-0.528767339,27.6131281 -0.374576857,24.7849385 1.46489932,23.1356659 C1.54932138,23.0599732 1.63659078,22.9875175 1.72651843,22.918456 L3.48296042,21.5695659 L2.68970985,19.4818702 C1.81218678,17.1723842 2.97302214,14.5888028 5.28250821,13.7112797 C5.39425365,13.6688204 5.50765612,13.6308573 5.62244252,13.5974819 L7.70840816,12.9909644 L7.71464712,10.7846096 C7.72163322,8.31403801 9.73009054,6.3169074 12.2006621,6.32389349 C12.3314349,6.32426328 12.4621286,6.33036734 12.5923666,6.34218809 L14.7139609,6.53474955 L15.4932611,4.51828659 C16.3838679,2.21381438 18.9739912,1.06765001 21.2784634,1.95825682 C21.4101843,2.00916285 21.5394208,2.06627756 21.6657388,2.12940908 L23.5534799,3.07286908 L24.9797526,1.50027342 C26.6395039,-0.329753499 29.468528,-0.467789229 31.2985549,1.19196199 C31.4062758,1.28965991 31.5091685,1.39255257 31.6068664,1.50027342 L33.0331391,3.07286908 L34.9208802,2.12940908 C37.1308276,1.02491597 39.8177126,1.92106376 40.9222057,4.13101119 C40.9853372,4.25732916 41.0424519,4.38656569 41.0933579,4.51828659 L41.8726581,6.53474955 L43.9942524,6.34218809 C46.4547202,6.11886957 48.6303588,7.93243735 48.8536773,10.3929051 C48.865498,10.5231431 48.8716021,10.6538368 48.8719719,10.7846096 L48.8782109,12.9909644 L50.9641765,13.5974819 C53.3365114,14.2872644 54.7004895,16.7696011 54.010707,19.1419359 C53.9773316,19.2567223 53.9393685,19.3701248 53.8969092,19.4818702 L53.1036586,21.5695659 L54.8601006,22.918456 C56.8195385,24.4232404 57.188108,27.2315473 55.6833236,29.1909852 C55.6142621,29.2809129 55.5418065,29.3681823 55.4661138,29.4526043 L53.9783312,31.1119665 L55.1403477,33.0213756 C56.4247315,35.1318568 55.7550472,37.8839387 53.644566,39.1683224 C53.545871,39.2283856 53.4448862,39.2846027 53.3418388,39.3368473 L51.3840993,40.3294122 L51.7821639,42.5167464 C52.2245102,44.9474053 50.6126643,47.2764361 48.1820055,47.7187824 C48.0591635,47.7411379 47.9354394,47.7583406 47.8111581,47.7703452 L45.6713283,47.9770357 L45.2679707,50.1243912 C44.8118751,52.5525077 42.4737593,54.1511465 40.0456429,53.6950509 C39.9115068,53.6698549 39.7785941,53.6385334 39.6473218,53.6011847 L37.6115596,53.0219831 L36.4885423,54.8438873 C35.1921721,56.9470271 32.4363248,57.6010431 30.333185,56.3046729 C30.2103151,56.2289362 30.0911827,56.1472971 29.9762059,56.0600422 L28.2933095,54.7829064 Z M20.5352922,33.1034059 C20.5352922,37.4416277 24.1383319,40.9584514 28.5829067,40.9584514 C33.0274814,40.9584514 36.6305212,37.4416277 36.6305212,33.1034059 L20.5352922,33.1034059 Z M26.6366159,36.5609278 L31.0600189,36.5609278 C31.6776643,36.5609278 32.1783648,37.0616283 32.1783648,37.6792736 L32.1783648,37.6868806 C32.1783648,38.304526 31.6776643,38.8052265 31.0600189,38.8052265 L26.6366159,38.8052265 C26.0189705,38.8052265 25.51827,38.304526 25.51827,37.6868806 L25.51827,37.6792736 C25.51827,37.0616283 26.0189705,36.5609278 26.6366159,36.5609278 Z M19.4131832,29.266957 C19.4131832,28.0484152 20.5124043,27.0226583 21.9107187,27.0226583 C23.3090331,27.0226583 24.4082542,28.0484152 24.4082542,29.266957 C24.4082542,29.886703 24.9052252,30.3891063 25.51827,30.3891063 C26.1313148,30.3891063 26.6282858,29.886703 26.6282858,29.266957 C26.6282858,26.7670229 24.4971955,24.7783596 21.9107187,24.7783596 C19.3242419,24.7783596 17.1931516,26.7670229 17.1931516,29.266957 C17.1931516,29.886703 17.6901226,30.3891063 18.3031674,30.3891063 C18.9162122,30.3891063 19.4131832,29.886703 19.4131832,29.266957 Z M32.1783648,29.266957 C32.1783648,28.0484152 33.2775859,27.0226583 34.6759003,27.0226583 C36.0742147,27.0226583 37.1734359,28.0484152 37.1734359,29.266957 C37.1734359,29.886703 37.6704068,30.3891063 38.2834516,30.3891063 C38.8964964,30.3891063 39.3934674,29.886703 39.3934674,29.266957 C39.3934674,26.7670229 37.2623771,24.7783596 34.6759003,24.7783596 C32.0894235,24.7783596 29.9583332,26.7670229 29.9583332,29.266957 C29.9583332,29.886703 30.4553042,30.3891063 31.068349,30.3891063 C31.6813938,30.3891063 32.1783648,29.886703 32.1783648,29.266957 Z" id="Combined-Shape" fill="#FFFFFF"></path>
            <path d="M86.3172168,16.6635415 C87.1018915,16.6635415 87.7296217,16.9006592 88.2004265,17.3749016 C88.6712313,17.849144 88.9066302,18.4814577 88.9066302,19.2718617 L88.9066302,38.275337 C88.9066302,39.065741 88.6712313,39.7037004 88.2004265,40.1892343 C87.7296217,40.6747681 87.1018915,40.9175314 86.3172168,40.9175314 C85.5325422,40.9175314 84.9104167,40.6804138 84.4508215,40.2061714 C83.9912264,39.731929 83.7614323,39.088324 83.7614323,38.275337 L83.7614323,30.6874966 L72.8320903,30.6874966 L72.8320903,38.275337 C72.8320903,39.065741 72.5966915,39.7037004 72.1258867,40.1892343 C71.6550819,40.6747681 71.0385611,40.9175314 70.2763058,40.9175314 C69.4916312,40.9175314 68.8639009,40.6804138 68.3930961,40.2061714 C67.9222913,39.731929 67.6868925,39.088324 67.6868925,38.275337 L67.6868925,19.2718617 C67.6868925,18.4814577 67.9222913,17.849144 68.3930961,17.3749016 C68.8639009,16.9006592 69.4916312,16.6635415 70.2763058,16.6635415 C71.0609804,16.6635415 71.683106,16.9006592 72.1427011,17.3749016 C72.6022962,17.849144 72.8320903,18.4814577 72.8320903,19.2718617 L72.8320903,26.4870849 L83.7614323,26.4870849 L83.7614323,19.2718617 C83.7614323,18.4814577 83.9912264,17.849144 84.4508215,17.3749016 C84.9104167,16.9006592 85.5325422,16.6635415 86.3172168,16.6635415 Z M114.415326,37.4962284 C114.59468,37.9027219 114.684356,38.264044 114.684356,38.5802056 C114.684356,39.2125288 114.432143,39.7488663 113.927709,40.1892343 C113.423276,40.6296022 112.845988,40.8497829 112.195829,40.8497829 C111.769863,40.8497829 111.366322,40.731224 110.985194,40.4941028 C110.604067,40.2569816 110.31262,39.9013052 110.110847,39.4270628 L108.328523,35.4298969 L96.9283792,35.4298969 L95.1460557,39.4270628 C94.9442822,39.9013052 94.6584408,40.2569816 94.2885227,40.4941028 C93.9186047,40.731224 93.5094591,40.8497829 93.0610736,40.8497829 C92.4109146,40.8497829 91.8280222,40.6296022 91.3123788,40.1892343 C90.7967355,39.7488663 90.5389177,39.2125288 90.5389177,38.5802056 C90.5389177,38.264044 90.6285935,37.9027219 90.8079477,37.4962284 L99.8877087,18.2895073 C100.134321,17.747516 100.504233,17.335383 100.997457,17.0530958 C101.490681,16.7708087 102.017526,16.6296672 102.578008,16.6296672 C103.160909,16.6296672 103.698964,16.7764544 104.192188,17.070033 C104.685412,17.3636116 105.066534,17.770099 105.335565,18.2895073 L114.415326,37.4962284 Z M98.7107026,31.4327309 L106.5462,31.4327309 L102.645266,22.6254161 L98.7107026,31.4327309 Z M118.906057,40.9175314 C118.098963,40.9175314 117.460023,40.6804138 116.989219,40.2061714 C116.518414,39.731929 116.283015,39.088324 116.283015,38.275337 L116.283015,19.305736 C116.283015,18.515332 116.495995,17.9056009 116.921961,17.4765244 C117.347927,17.047448 117.953239,16.832913 118.737913,16.832913 L127.178728,16.832913 C129.756945,16.832913 131.76344,17.4878093 133.198273,18.7976217 C134.633107,20.107434 135.350513,21.9366272 135.350513,24.2852562 C135.350513,26.6338853 134.633107,28.4630785 133.198273,29.7728908 C131.76344,31.0827032 129.756945,31.7375995 127.178728,31.7375995 L121.529099,31.7375995 L121.529099,38.275337 C121.529099,39.088324 121.2937,39.731929 120.822895,40.2061714 C120.352091,40.6804138 119.713151,40.9175314 118.906057,40.9175314 Z M126.506153,27.7404336 C129.129208,27.7404336 130.440716,26.6000106 130.440716,24.3191305 C130.440716,22.0156675 129.129208,20.8639532 126.506153,20.8639532 L121.529099,20.8639532 L121.529099,27.7404336 L126.506153,27.7404336 Z M140.076645,40.9175314 C139.269551,40.9175314 138.630611,40.6804138 138.159807,40.2061714 C137.689002,39.731929 137.453603,39.088324 137.453603,38.275337 L137.453603,19.305736 C137.453603,18.515332 137.666583,17.9056009 138.092549,17.4765244 C138.518515,17.047448 139.123827,16.832913 139.908501,16.832913 L148.349316,16.832913 C150.927533,16.832913 152.934028,17.4878093 154.368861,18.7976217 C155.803695,20.107434 156.521101,21.9366272 156.521101,24.2852562 C156.521101,26.6338853 155.803695,28.4630785 154.368861,29.7728908 C152.934028,31.0827032 150.927533,31.7375995 148.349316,31.7375995 L142.699687,31.7375995 L142.699687,38.275337 C142.699687,39.088324 142.464288,39.731929 141.993484,40.2061714 C141.522679,40.6804138 140.883739,40.9175314 140.076645,40.9175314 Z M147.676741,27.7404336 C150.299797,27.7404336 151.611304,26.6000106 151.611304,24.3191305 C151.611304,22.0156675 150.299797,20.8639532 147.676741,20.8639532 L142.699687,20.8639532 L142.699687,27.7404336 L147.676741,27.7404336 Z M173.219066,17.5103987 C173.71229,16.9232415 174.295183,16.6296672 174.967761,16.6296672 C175.595501,16.6296672 176.161579,16.8724305 176.666012,17.3579644 C177.170446,17.8434983 177.422659,18.4024185 177.422659,19.0347417 C177.422659,19.5993159 177.209679,20.1300078 176.783713,20.6268332 L169.419018,29.434148 L169.419018,38.275337 C169.419018,39.1334899 169.17241,39.7883863 168.679186,40.2400457 C168.185962,40.6917051 167.569441,40.9175314 166.829605,40.9175314 C166.04493,40.9175314 165.40599,40.6917051 164.912766,40.2400457 C164.419542,39.7883863 164.172934,39.1334899 164.172934,38.275337 L164.172934,29.434148 L156.875496,20.6268332 C156.44953,20.1751738 156.23655,19.6444819 156.23655,19.0347417 C156.23655,18.4024185 156.477554,17.8434983 156.959568,17.3579644 C157.441583,16.8724305 157.996451,16.6296672 158.624191,16.6296672 C159.296769,16.6296672 159.879662,16.9232415 160.372886,17.5103987 L166.795976,25.4031077 L173.219066,17.5103987 Z M186.874923,40.9175314 C185.843637,40.9626974 185.064579,40.804619 184.537726,40.4432914 C184.010873,40.0819639 183.74745,39.5286894 183.74745,38.7834513 C183.74745,38.1059622 183.915592,37.6034986 184.251881,37.2760455 C184.58817,36.9485924 185.115015,36.7622857 185.832432,36.7171198 L186.908552,36.6493712 C188.52274,36.5816223 189.329822,35.6218604 189.329822,33.7700568 L189.329822,19.2718617 C189.329822,18.4814577 189.57643,17.849144 190.069654,17.3749016 C190.562878,16.9006592 191.201818,16.6635415 191.986492,16.6635415 C192.771167,16.6635415 193.404502,16.9006592 193.886516,17.3749016 C194.368531,17.849144 194.609534,18.4814577 194.609534,19.2718617 L194.609534,33.7023082 C194.609534,38.1737365 192.39006,40.5562042 187.951043,40.8497829 L186.874923,40.9175314 Z M208.07914,41.0191543 C204.761087,41.0191543 202.233352,40.1553686 200.495858,38.4277713 C198.758364,36.700174 197.889631,34.1765648 197.889631,30.856868 L197.889631,19.2718617 C197.889631,18.4814577 198.125029,17.849144 198.595834,17.3749016 C199.066639,16.9006592 199.694369,16.6635415 200.479044,16.6635415 C201.263718,16.6635415 201.885844,16.9006592 202.345439,17.3749016 C202.805034,17.849144 203.034828,18.4814577 203.034828,19.2718617 L203.034828,31.093988 C203.034828,32.9909576 203.466393,34.4362461 204.329535,35.4298969 C205.192677,36.4235476 206.442533,36.9203655 208.07914,36.9203655 C209.715747,36.9203655 210.971208,36.4179019 211.845559,35.4129597 C212.719911,34.4080175 213.15708,32.9683747 213.15708,31.093988 L213.15708,19.2718617 C213.15708,18.4814577 213.386875,17.849144 213.84647,17.3749016 C214.306065,16.9006592 214.92819,16.6635415 215.712865,16.6635415 C216.49754,16.6635415 217.12527,16.9006592 217.596075,17.3749016 C218.06688,17.849144 218.302278,18.4814577 218.302278,19.2718617 L218.302278,30.856868 C218.302278,34.1539818 217.42794,36.6719454 215.679236,38.4108342 C213.930533,40.1497229 211.397193,41.0191543 208.07914,41.0191543 Z M224.205416,40.9175314 C223.398323,40.9175314 222.759383,40.6804138 222.288578,40.2061714 C221.817773,39.731929 221.582374,39.088324 221.582374,38.275337 L221.582374,19.2718617 C221.582374,18.4814577 221.817773,17.849144 222.288578,17.3749016 C222.759383,16.9006592 223.398323,16.6635415 224.205416,16.6635415 C225.01251,16.6635415 225.65145,16.9006592 226.122255,17.3749016 C226.59306,17.849144 226.828459,18.4814577 226.828459,19.2718617 L226.828459,38.275337 C226.828459,39.088324 226.59306,39.731929 226.122255,40.2061714 C225.65145,40.6804138 225.01251,40.9175314 224.205416,40.9175314 Z M241.138783,41.0191543 C238.807178,41.0191543 236.767055,40.5223364 235.018351,39.5286856 C233.269648,38.5350349 231.924511,37.1123291 230.982902,35.2605254 C230.041292,33.4087218 229.570495,31.240789 229.570495,28.7566622 C229.570495,26.2725354 230.041292,24.1102483 230.982902,22.2697361 C231.924511,20.429224 233.269648,19.0121638 235.018351,18.018513 C236.767055,17.0248623 238.807178,16.5280444 241.138783,16.5280444 C244.075708,16.5280444 246.609048,17.3410192 248.738879,18.9669931 C249.075168,19.2379887 249.310567,19.5089803 249.445083,19.779976 C249.579598,20.0509716 249.646855,20.3897111 249.646855,20.7962046 C249.646855,21.3833619 249.484318,21.8858254 249.159238,22.3036104 C248.834159,22.7213954 248.436223,22.9302847 247.965418,22.9302847 C247.651548,22.9302847 247.376916,22.8907651 247.141514,22.8117247 C246.906111,22.7326843 246.642689,22.5915429 246.351238,22.3882961 C245.454467,21.8011389 244.624966,21.3777145 243.862711,21.1180104 C243.100456,20.8583062 242.282164,20.728456 241.407813,20.728456 C239.255562,20.728456 237.635794,21.4002894 236.548459,22.7439762 C235.461124,24.0876629 234.917465,26.0918716 234.917465,28.7566622 C234.917465,34.1314094 237.080893,36.8187426 241.407813,36.8187426 C242.237326,36.8187426 243.021989,36.6888925 243.761825,36.4291883 C244.501661,36.1694842 245.36479,35.7460598 246.351238,35.1589026 C246.687527,34.9556558 246.967764,34.8145144 247.191957,34.735474 C247.416149,34.6564336 247.673967,34.616914 247.965418,34.616914 C248.436223,34.616914 248.834159,34.8258033 249.159238,35.2435883 C249.484318,35.6613732 249.646855,36.1638368 249.646855,36.7509941 C249.646855,37.1574876 249.573993,37.5018727 249.428268,37.7841598 C249.282543,38.066447 249.052749,38.3317929 248.738879,38.5802056 C246.609048,40.2061795 244.075708,41.0191543 241.138783,41.0191543 Z M254.204843,40.7142857 C253.420169,40.7142857 252.814857,40.4997507 252.388891,40.0706743 C251.962925,39.6415978 251.749945,39.0318667 251.749945,38.2414627 L251.749945,19.305736 C251.749945,18.515332 251.962925,17.9056009 252.388891,17.4765244 C252.814857,17.047448 253.420169,16.832913 254.204843,16.832913 L266.109419,16.832913 C267.768445,16.832913 268.597946,17.5103919 268.597946,18.8653702 C268.597946,20.2429315 267.768445,20.9317018 266.109419,20.9317018 L256.861514,20.9317018 L256.861514,26.5209592 L265.436844,26.5209592 C267.09587,26.5209592 267.925371,27.2097295 267.925371,28.5872908 C267.925371,29.942269 267.09587,30.619748 265.436844,30.619748 L256.861514,30.619748 L256.861514,36.6154969 L266.109419,36.6154969 C267.768445,36.6154969 268.597946,37.3042672 268.597946,38.6818285 C268.597946,40.0368067 267.768445,40.7142857 266.109419,40.7142857 L254.204843,40.7142857 Z" id="HAPPY-JUICE" fill="#FFFFFF"></path>
            <ellipse id="Oval" fill="#38F6C0" cx="213.413174" cy="9.77142857" rx="3.23353293" ry="3.25714286"></ellipse>
            <ellipse id="Oval" fill="#38F6C0" cx="202.095808" cy="9.77142857" rx="3.23353293" ry="3.25714286"></ellipse>
            <path d="M206.097562,24.2659528 C206.097562,24.2659528 206.097562,24.2659528 206.097562,24.2659528 C207.927082,24.7076869 208.075101,23.5824777 209.590425,22.6373814 C209.590425,22.6373814 209.590425,22.6373814 209.590425,22.6373814 L209.590425,22.6373814 C210.365517,22.1539624 211.385741,22.3904099 211.86916,23.1655017 C212.03293,23.428083 212.11975,23.7313427 212.11975,24.0408093 L212.11978,31.6240367 C212.11978,33.8563253 210.310153,35.6659528 208.077864,35.6659528 L208.077864,35.6659528 C205.845575,35.6659528 204.035948,33.8563253 204.035948,31.6240367 L204.03594,25.8890422 C204.03594,24.9668758 204.783504,24.2193122 205.70567,24.2193122 C205.837685,24.2193122 205.969234,24.2349684 206.097562,24.2659528 Z" id="Rectangle-2" fill="#38F6C0"></path>
        </g>
    </g>
</svg>